<mxfile host="app.diagrams.net" modified="2023-05-26T03:54:38.327Z" agent="Mozilla/5.0 (Windows NT 10.0; WOW64) AppleWebKit/537.36 (KHTML, like Gecko) Chrome/112.0.5615.138 Safari/537.36 NetHelper70" etag="-XeIATAA-ReTxVsWrIYE" version="21.3.3" type="github">
  <diagram name="페이지-1" id="Gj9clw8r3NQYbEZ6TE_w">
    <mxGraphModel dx="1434" dy="806" grid="1" gridSize="10" guides="1" tooltips="1" connect="1" arrows="1" fold="1" page="1" pageScale="1" pageWidth="827" pageHeight="1169" math="0" shadow="0">
      <root>
        <mxCell id="0" />
        <mxCell id="1" parent="0" />
        <mxCell id="v4KOpcmm4b0dGhywCuNI-10" style="edgeStyle=orthogonalEdgeStyle;rounded=0;orthogonalLoop=1;jettySize=auto;html=1;exitX=1;exitY=0.25;exitDx=0;exitDy=0;entryX=0;entryY=0.25;entryDx=0;entryDy=0;" edge="1" parent="1" source="v4KOpcmm4b0dGhywCuNI-1" target="v4KOpcmm4b0dGhywCuNI-7">
          <mxGeometry relative="1" as="geometry" />
        </mxCell>
        <mxCell id="v4KOpcmm4b0dGhywCuNI-1" value="Intro 화면" style="swimlane;whiteSpace=wrap;html=1;" vertex="1" parent="1">
          <mxGeometry x="120" y="160" width="280" height="280" as="geometry" />
        </mxCell>
        <mxCell id="v4KOpcmm4b0dGhywCuNI-2" value="" style="sketch=0;outlineConnect=0;fontColor=#232F3E;gradientColor=none;fillColor=#D45B07;strokeColor=none;dashed=0;verticalLabelPosition=bottom;verticalAlign=top;align=center;html=1;fontSize=12;fontStyle=0;aspect=fixed;pointerEvents=1;shape=mxgraph.aws4.container_registry_image;" vertex="1" parent="v4KOpcmm4b0dGhywCuNI-1">
          <mxGeometry x="100" y="80" width="80" height="80" as="geometry" />
        </mxCell>
        <mxCell id="v4KOpcmm4b0dGhywCuNI-4" value="로그인이 필요합니다" style="rounded=1;align=left;fillColor=#F1F2F4;strokeColor=none;html=1;fontColor=#596780;fontSize=12;spacingLeft=26;" vertex="1" parent="v4KOpcmm4b0dGhywCuNI-1">
          <mxGeometry x="60" y="170" width="160" height="33" as="geometry" />
        </mxCell>
        <mxCell id="v4KOpcmm4b0dGhywCuNI-5" value="" style="shape=stencil(zVpNc9sgEP01PpoRQgh07LjtqdNLDz2rjpJo4kge2W2S/vou+vRimaxoXazpTCOIgH3svl0eWYnN4THfF6s4yg/7YntciY+rOP6VN2X+YwfNMfQ8do08irr3Kn8uuqYvdX5XVg/Qtimb7fD7h2NTPxUv5d2x/7KsHoumPHa9L2g08WkVfYBW809stnVVwSLKujqgnpN+GDwvqyNaxtdu5D1M8lwci6Zr7Vf72r8x2b2/od5V/HnJTN88ZuJeM32nzIQtGuZdONMnwkycNpPYQMulTRSbH/n26aGpf1Z3s+trexrjhOCNzfZQ/u5XKCPkiLFEnqTRSpOUss3tQi8sR2zu66ZwrPO+3O229a5u4LX7v51qFYtt+7h3wXzt6KaCoBEGAyQ9CAp74ICJ55L2uQnks46h+7n+VUxTp5oJgWbPXJMPg+zK6nQQzsw3J4PEMXMH0jAQYAY/7PLmoVjDz+v7Xf6AXKHp5+ghat7Q6+GlKPbnHw3rEizusXxd56/lYd3Ux9y4er9KzYaNeRtbMu0FgLTHiUR4+8E+tcx+p+vNG68kE3gUHjNFcqOrWq8EE8ki61MWxV72c2uYTAW3/iSwidaTdmy7qw/Fu7+FOUYrJhV2s4QpEkQW0gnDXCU4U84s+n8cDcjOgXQK3QletmaSxI6W+XwM52GglKkkvP0T2dEB0CR6xABk/Hz/dfj9zwRz8cy5+bFkkUeazRI7VwPVaBJjX9X+k/imAkCNfx+6gcETDJPJRx7uZrzL3jdScXBVtCF2Uu5Aex1nLLHgViz18DdgF23xNsx9Ewgol7/NIcBHUxZ6AB5H34ADgH/LbJn5UJF45Bv4zOIbyTJSgXRt+xNXupmxn0wAXnwjLZoAr8lIWRnDDYtMLb5JWBqe3sE87YCb82wsm6e0lHr4Wzom88n+W0hvbKH5sP+0bbPCjY/RNZVJNEe6brwB3brq2zkEgHA8Eg7kKUsKMVR/AwhIDxeg7ZybcFrd64Ke864OdFn3itrHtbx/JGxFCJS/1LUu25O1j3vwRaqYstInnNc8CB3qYuu8piST4WUhOEc4z2trU7Bjf1ZiTKmLTixiPOhMCNyAMJg5C+hz88EB3M47b75SY9kxDAQFZXhtSEWjQkVGQDDpgwAfK88JgVvQBl0H9nkHoDGATwEJkHBMOEqPC1hUQIGb4nCbFJOQYEv2Xr1u30EIIktY3gZOiusHoDp+A94mR/qgIgC5Q/hcRGjGcbxNmmlIMZov9QAVM+FzEwUJB3sAMFASPuGchDgZASoHBCkh0/ZxLe86F8Ruuf/f3o2a2wWrfiMGk3WsSViCndJEd3haMvqO83ows3VboFOPtGRkDJxODb+TBrqujsjdQtKM/cR0aqmI2j7WmtgOT0pG311mvxr10IX2SyxsGXYPL6SexDfVfmL8B6Hk7nHT4yL+M6K5VQZzn/jXlj4KRUoa/tYuZZl0bH4asdhKyJJ4dsPWy3Ge6Sx9A5qWkcRdotas/T6qpq2OmxI1/O6bK7Fl229qWJ/kPzn7dJSOwqvaJ8FNByBUPdp+dPZnfm1r9/ewbcMf);fillColor=#596780;strokeColor=none;fontColor=#ffffff;labelPosition=right;verticalLabelPosition=middle;align=left;verticalAlign=middle;html=1;whiteSpace=wrap;spacingLeft=5" vertex="1" parent="v4KOpcmm4b0dGhywCuNI-4">
          <mxGeometry y="0.5" width="12" height="12" relative="1" as="geometry">
            <mxPoint x="10" y="-6" as="offset" />
          </mxGeometry>
        </mxCell>
        <mxCell id="v4KOpcmm4b0dGhywCuNI-11" style="edgeStyle=orthogonalEdgeStyle;rounded=0;orthogonalLoop=1;jettySize=auto;html=1;exitX=0;exitY=0.75;exitDx=0;exitDy=0;entryX=1;entryY=0.75;entryDx=0;entryDy=0;" edge="1" parent="1" source="v4KOpcmm4b0dGhywCuNI-7" target="v4KOpcmm4b0dGhywCuNI-1">
          <mxGeometry relative="1" as="geometry" />
        </mxCell>
        <mxCell id="v4KOpcmm4b0dGhywCuNI-7" value="login page" style="swimlane;whiteSpace=wrap;html=1;" vertex="1" parent="1">
          <mxGeometry x="490" y="160" width="270" height="280" as="geometry" />
        </mxCell>
        <mxCell id="v4KOpcmm4b0dGhywCuNI-8" value="Login" style="html=1;whiteSpace=wrap;strokeColor=none;fillColor=#0079D6;labelPosition=center;verticalLabelPosition=middle;verticalAlign=top;align=center;fontSize=12;outlineConnect=0;spacingTop=-6;fontColor=#FFFFFF;sketch=0;shape=mxgraph.sitemap.login;" vertex="1" parent="v4KOpcmm4b0dGhywCuNI-7">
          <mxGeometry x="75" y="105" width="120" height="70" as="geometry" />
        </mxCell>
        <mxCell id="v4KOpcmm4b0dGhywCuNI-12" value="Calendar Page" style="swimlane;whiteSpace=wrap;html=1;" vertex="1" parent="1">
          <mxGeometry x="120" y="500" width="280" height="370" as="geometry" />
        </mxCell>
        <mxCell id="v4KOpcmm4b0dGhywCuNI-19" value="" style="group" vertex="1" connectable="0" parent="v4KOpcmm4b0dGhywCuNI-12">
          <mxGeometry x="20" y="40" width="240" height="110" as="geometry" />
        </mxCell>
        <mxCell id="v4KOpcmm4b0dGhywCuNI-17" value="" style="rounded=1;whiteSpace=wrap;html=1;" vertex="1" parent="v4KOpcmm4b0dGhywCuNI-19">
          <mxGeometry width="240" height="110" as="geometry" />
        </mxCell>
        <mxCell id="v4KOpcmm4b0dGhywCuNI-14" value="&lt;b style=&quot;font-size: 6px;&quot;&gt;&lt;font style=&quot;font-size: 6px;&quot;&gt;일정 명&lt;br style=&quot;font-size: 6px;&quot;&gt;&lt;/font&gt;&lt;/b&gt;&lt;div style=&quot;font-size: 6px;&quot;&gt;일정 상세&lt;/div&gt;" style="html=1;rounded=1;fillColor=#dae8fc;strokeColor=none;fontSize=6;align=left;shadow=1;arcSize=1;whiteSpace=wrap;spacing=20;verticalAlign=middle;sketch=1;hachureGap=4;pointerEvents=0;fontFamily=Architects Daughter;fontSource=https%3A%2F%2Ffonts.googleapis.com%2Fcss%3Ffamily%3DArchitects%2BDaughter;strokeWidth=1;" vertex="1" parent="v4KOpcmm4b0dGhywCuNI-19">
          <mxGeometry x="15" y="20" width="210" height="30" as="geometry" />
        </mxCell>
        <mxCell id="v4KOpcmm4b0dGhywCuNI-18" value="&lt;b style=&quot;font-size: 6px;&quot;&gt;&lt;font style=&quot;font-size: 6px;&quot;&gt;일정 명&lt;br style=&quot;font-size: 6px;&quot;&gt;&lt;/font&gt;&lt;/b&gt;&lt;div style=&quot;font-size: 6px;&quot;&gt;일정 상세&lt;/div&gt;" style="html=1;rounded=1;fillColor=#dae8fc;strokeColor=none;fontSize=6;align=left;shadow=1;arcSize=1;whiteSpace=wrap;spacing=20;verticalAlign=middle;sketch=1;hachureGap=4;pointerEvents=0;fontFamily=Architects Daughter;fontSource=https%3A%2F%2Ffonts.googleapis.com%2Fcss%3Ffamily%3DArchitects%2BDaughter;" vertex="1" parent="v4KOpcmm4b0dGhywCuNI-19">
          <mxGeometry x="15" y="60" width="210" height="30" as="geometry" />
        </mxCell>
        <mxCell id="v4KOpcmm4b0dGhywCuNI-25" value="" style="group" vertex="1" connectable="0" parent="v4KOpcmm4b0dGhywCuNI-12">
          <mxGeometry x="20" y="170" width="240" height="120" as="geometry" />
        </mxCell>
        <mxCell id="v4KOpcmm4b0dGhywCuNI-20" value="" style="rounded=1;whiteSpace=wrap;html=1;" vertex="1" parent="v4KOpcmm4b0dGhywCuNI-25">
          <mxGeometry width="240" height="120" as="geometry" />
        </mxCell>
        <mxCell id="v4KOpcmm4b0dGhywCuNI-21" value="일정1" style="rounded=1;fillColor=#0057D8;strokeColor=none;html=1;whiteSpace=wrap;fontColor=#ffffff;align=center;verticalAlign=middle;fontStyle=0;fontSize=12;sketch=0;" vertex="1" parent="v4KOpcmm4b0dGhywCuNI-25">
          <mxGeometry x="20" y="20" width="86" height="33" as="geometry" />
        </mxCell>
        <mxCell id="v4KOpcmm4b0dGhywCuNI-22" value="일정2" style="rounded=1;fillColor=#0057D8;strokeColor=none;html=1;whiteSpace=wrap;fontColor=#ffffff;align=center;verticalAlign=middle;fontStyle=0;fontSize=12;sketch=0;" vertex="1" parent="v4KOpcmm4b0dGhywCuNI-25">
          <mxGeometry x="130" y="20" width="86" height="33" as="geometry" />
        </mxCell>
        <mxCell id="v4KOpcmm4b0dGhywCuNI-23" value="일정3" style="rounded=1;fillColor=#0057D8;strokeColor=none;html=1;whiteSpace=wrap;fontColor=#ffffff;align=center;verticalAlign=middle;fontStyle=0;fontSize=12;sketch=0;" vertex="1" parent="v4KOpcmm4b0dGhywCuNI-25">
          <mxGeometry x="20" y="70" width="86" height="33" as="geometry" />
        </mxCell>
        <mxCell id="v4KOpcmm4b0dGhywCuNI-24" value="일정4" style="rounded=1;fillColor=#0057D8;strokeColor=none;html=1;whiteSpace=wrap;fontColor=#ffffff;align=center;verticalAlign=middle;fontStyle=0;fontSize=12;sketch=0;" vertex="1" parent="v4KOpcmm4b0dGhywCuNI-25">
          <mxGeometry x="130" y="70" width="86" height="33" as="geometry" />
        </mxCell>
        <mxCell id="v4KOpcmm4b0dGhywCuNI-26" value="일정 등록" style="rounded=1;fillColor=#0057D8;strokeColor=none;html=1;whiteSpace=wrap;fontColor=#ffffff;align=center;verticalAlign=middle;fontStyle=0;fontSize=12;sketch=0;" vertex="1" parent="v4KOpcmm4b0dGhywCuNI-12">
          <mxGeometry x="20" y="310" width="240" height="33" as="geometry" />
        </mxCell>
        <mxCell id="v4KOpcmm4b0dGhywCuNI-13" value="Add Template Page" style="swimlane;whiteSpace=wrap;html=1;" vertex="1" parent="1">
          <mxGeometry x="490" y="500" width="280" height="400" as="geometry" />
        </mxCell>
        <mxCell id="v4KOpcmm4b0dGhywCuNI-28" value="" style="html=1;shadow=0;dashed=0;shape=mxgraph.bootstrap.rrect;rSize=5;fillColor=#ffffff;strokeColor=#999999;" vertex="1" parent="v4KOpcmm4b0dGhywCuNI-13">
          <mxGeometry x="20" y="40" width="170" height="110" as="geometry" />
        </mxCell>
        <mxCell id="v4KOpcmm4b0dGhywCuNI-29" value="template 1" style="fillColor=none;strokeColor=none;align=left;spacing=20;fontSize=14;" vertex="1" parent="v4KOpcmm4b0dGhywCuNI-28">
          <mxGeometry width="170" height="30" relative="1" as="geometry">
            <mxPoint y="10" as="offset" />
          </mxGeometry>
        </mxCell>
        <mxCell id="v4KOpcmm4b0dGhywCuNI-30" value="template 2" style="fillColor=#0085FC;strokeColor=none;fontColor=#ffffff;align=left;spacing=20;fontSize=14;sketch=0;" vertex="1" parent="v4KOpcmm4b0dGhywCuNI-28">
          <mxGeometry width="170" height="30" relative="1" as="geometry">
            <mxPoint y="40" as="offset" />
          </mxGeometry>
        </mxCell>
        <mxCell id="v4KOpcmm4b0dGhywCuNI-31" value="template 3" style="fillColor=none;strokeColor=none;align=left;spacing=20;fontSize=14;" vertex="1" parent="v4KOpcmm4b0dGhywCuNI-28">
          <mxGeometry width="170" height="30" relative="1" as="geometry">
            <mxPoint y="70" as="offset" />
          </mxGeometry>
        </mxCell>
        <mxCell id="v4KOpcmm4b0dGhywCuNI-51" value="등록" style="rounded=1;fillColor=#0057D8;strokeColor=none;html=1;whiteSpace=wrap;fontColor=#ffffff;align=center;verticalAlign=middle;fontStyle=0;fontSize=12;sketch=0;" vertex="1" parent="v4KOpcmm4b0dGhywCuNI-13">
          <mxGeometry x="97" y="350" width="86" height="33" as="geometry" />
        </mxCell>
        <mxCell id="v4KOpcmm4b0dGhywCuNI-49" value="" style="html=1;shadow=0;dashed=0;shape=mxgraph.bootstrap.rrect;rSize=5;strokeColor=#CED4DA;html=1;whiteSpace=wrap;fillColor=#FFFFFF;fontColor=#7D868C;align=right;spacingLeft=50;fontSize=14;" vertex="1" parent="v4KOpcmm4b0dGhywCuNI-13">
          <mxGeometry x="20" y="290" width="200" height="40" as="geometry" />
        </mxCell>
        <mxCell id="v4KOpcmm4b0dGhywCuNI-50" value="기타" style="html=1;shadow=0;dashed=0;shape=mxgraph.bootstrap.leftButton;strokeColor=inherit;gradientColor=inherit;fontColor=inherit;fillColor=#E9ECEF;rSize=5;perimeter=none;whiteSpace=wrap;resizeHeight=1;" vertex="1" parent="v4KOpcmm4b0dGhywCuNI-49">
          <mxGeometry width="70" height="40" relative="1" as="geometry" />
        </mxCell>
        <mxCell id="v4KOpcmm4b0dGhywCuNI-47" value="" style="html=1;shadow=0;dashed=0;shape=mxgraph.bootstrap.rrect;rSize=5;strokeColor=#CED4DA;html=1;whiteSpace=wrap;fillColor=#FFFFFF;fontColor=#7D868C;align=right;spacingLeft=50;fontSize=14;" vertex="1" parent="v4KOpcmm4b0dGhywCuNI-13">
          <mxGeometry x="20" y="236.5" width="200" height="40" as="geometry" />
        </mxCell>
        <mxCell id="v4KOpcmm4b0dGhywCuNI-48" value="일정상세" style="html=1;shadow=0;dashed=0;shape=mxgraph.bootstrap.leftButton;strokeColor=inherit;gradientColor=inherit;fontColor=inherit;fillColor=#E9ECEF;rSize=5;perimeter=none;whiteSpace=wrap;resizeHeight=1;" vertex="1" parent="v4KOpcmm4b0dGhywCuNI-47">
          <mxGeometry width="70" height="40" relative="1" as="geometry" />
        </mxCell>
        <mxCell id="v4KOpcmm4b0dGhywCuNI-45" value="" style="html=1;shadow=0;dashed=0;shape=mxgraph.bootstrap.rrect;rSize=5;strokeColor=#CED4DA;html=1;whiteSpace=wrap;fillColor=#FFFFFF;fontColor=#7D868C;align=right;spacingLeft=50;fontSize=14;" vertex="1" parent="v4KOpcmm4b0dGhywCuNI-13">
          <mxGeometry x="20" y="180" width="200" height="40" as="geometry" />
        </mxCell>
        <mxCell id="v4KOpcmm4b0dGhywCuNI-46" value="일정명" style="html=1;shadow=0;dashed=0;shape=mxgraph.bootstrap.leftButton;strokeColor=inherit;gradientColor=inherit;fontColor=inherit;fillColor=#E9ECEF;rSize=5;perimeter=none;whiteSpace=wrap;resizeHeight=1;" vertex="1" parent="v4KOpcmm4b0dGhywCuNI-45">
          <mxGeometry width="70" height="40" relative="1" as="geometry" />
        </mxCell>
        <mxCell id="v4KOpcmm4b0dGhywCuNI-27" style="edgeStyle=orthogonalEdgeStyle;rounded=0;orthogonalLoop=1;jettySize=auto;html=1;entryX=0;entryY=0.5;entryDx=0;entryDy=0;" edge="1" parent="1" source="v4KOpcmm4b0dGhywCuNI-26" target="v4KOpcmm4b0dGhywCuNI-13">
          <mxGeometry relative="1" as="geometry" />
        </mxCell>
      </root>
    </mxGraphModel>
  </diagram>
</mxfile>
